PathFileType	4	(X/Y/Z)	/home/utkubuntu/opensim/opensim_mycode/release_code/bioimitation/imitation_envs/data/02905/02905_PRE/experimental_data/task.trc
DataRate	CameraRate	NumFrames	NumMarkers	Units	OrigDataRate	OrigDataStartFrame	OrigNumFrames
100.000000	100.000000	4	43	mm	100.000000	119	478
Frame#	Time	C7			CLAV			LANK			LASI			LBHD			LELB			LFHD			LFIN			LHEE			LKNE			LMED			LMET			LMIF			LPSI			LSHO			LTHI			LTIB			LTOE			LTTU			LWRA			LWRB			RANK			RASI			RBAK			RBHD			RELB			RFHD			RFIN			RHEE			RKNE			RMED			RMET			RMIF			RPSI			RSHO			RTHI			RTIB			RTOE			RTTU			RWRA			RWRB			STRN			T10			
		X1	Y1	Z1	X2	Y2	Z2	X3	Y3	Z3	X4	Y4	Z4	X5	Y5	Z5	X6	Y6	Z6	X7	Y7	Z7	X8	Y8	Z8	X9	Y9	Z9	X10	Y10	Z10	X11	Y11	Z11	X12	Y12	Z12	X13	Y13	Z13	X14	Y14	Z14	X15	Y15	Z15	X16	Y16	Z16	X17	Y17	Z17	X18	Y18	Z18	X19	Y19	Z19	X20	Y20	Z20	X21	Y21	Z21	X22	Y22	Z22	X23	Y23	Z23	X24	Y24	Z24	X25	Y25	Z25	X26	Y26	Z26	X27	Y27	Z27	X28	Y28	Z28	X29	Y29	Z29	X30	Y30	Z30	X31	Y31	Z31	X32	Y32	Z32	X33	Y33	Z33	X34	Y34	Z34	X35	Y35	Z35	X36	Y36	Z36	X37	Y37	Z37	X38	Y38	Z38	X39	Y39	Z39	X40	Y40	Z40	X41	Y41	Z41	X42	Y42	Z42	X43	Y43	Z43	

120	1.19	-742.06298828125	1241.555053710938	212.5899963378904	-634.3469848632812	1164.39501953125	215.8370056152342	-936.5150146484375	86.70500183105472	150.2630004882813	-663.7940063476562	824.8289794921875	112.3150024414062	-717.1950073242188	1378.906005859375	152.4999999999998	-608.7080078125	976.9719848632812	-25.28000068664565	-574.4140014648438	1382.724975585938	155.7019958496091	-416.9679870605469	801.2789916992188	-63.34099960327161	-980.6300048828125	64.66899871826176	199.4309997558595	-801.8070068359375	442.9549865722656	111.2750015258789	-906.2000122070312	87.87200164794926	218.0469970703126	-873.8579711914062	28.5879993438721	114.0070037841798	-866.9559936523438	79.62599945068364	168.0679931640626	-803.6380004882812	860.0059814453125	178.0180053710936	-700.2520141601562	1206.4150390625	74.30899810790997	-781.697021484375	500.9339904785156	63.49800109863279	-884.1389770507812	252.2720031738282	83.02400207519537	-833.89501953125	42.27700042724612	138.8240051269532	-778.0059814453125	343.9710083007813	169.3470001220703	-444.6650085449219	846.1680297851562	-16.84600067138685	-482.0499877929688	808.5059814453125	-56.46900177001965	-477.8989868164062	80.41899871826179	326.3380126953126	-661.968994140625	827.2269897460939	334.0360107421874	-797.7230224609375	1124.697021484375	293.1709899902343	-735.6810302734375	1353.661987304688	289.0109863281248	-789.5449829101562	947.3280029296876	409.0870056152343	-577.8829956054688	1371.046997070312	292.471008300781	-762.3330078125	689.3870239257814	429.6589965820312	-499.8819885253906	38.10100173950201	269.9500122070313	-577.676025390625	447.7219848632813	352.9240112304687	-442.3380126953124	93.52100372314459	261.5180053710938	-386.7950134277343	67.40899658203134	359.1940002441407	-416.1010131835937	114.9940032958985	314.3099975585938	-801.0590209960938	857.9790039062501	272.2499999999999	-715.0889892578125	1214.31298828125	338.0280151367186	-620.916015625	518.7490234375001	407.0060119628906	-547.656005859375	271.6109924316407	394.4209899902344	-365.3359985351562	93.26799774169929	336.4169921875001	-496.6799926757812	389.4339904785157	308.3699951171874	-742.9080200195312	732.3060302734376	395.8450012207031	-807.10302734375	729.2180175781251	423.5230102539062	-605.2509765625	1043.22900390625	214.3529968261717	-788.7329711914062	969.4719848632812	221.542999267578	
121	1.2	-731.8300170898438	1240.932006835938	214.0760040283201	-623.97900390625	1163.83203125	217.804000854492	-935.1690063476562	89.16799926757815	149.9830017089845	-653.8140258789062	824.3280029296875	112.9270019531249	-707.218994140625	1378.109985351562	154.2640075683591	-595.4240112304688	978.2349853515625	-24.5799999237062	-564.3519897460938	1382.282958984375	157.4799957275388	-400.0220031738281	807.156982421875	-62.09199905395521	-979.677001953125	68.15699768066411	199.1929931640626	-794.8709716796875	443.3330078125	111.7720031738281	-904.8880004882812	89.89700317382817	217.7810058593751	-873.5170288085938	29.20000076293948	113.9869995117189	-865.7379760742188	80.72599792480473	167.6900024414063	-793.1190185546875	858.89599609375	180.2420043945311	-688.9390258789062	1206.120971679688	75.97799682617169	-774.4450073242188	501.2170104980469	63.99599838256834	-879.9990234375	254.0639953613282	83.05999755859381	-833.5130004882812	42.41899871826175	138.6320037841798	-772.3400268554688	343.7500000000001	169.4309997558594	-428.9989929199219	851.1519775390625	-15.61900043487562	-465.1679992675781	812.4299926757812	-55.07199859619153	-461.7349853515624	81.15399932861335	328.0280151367188	-649.8079833984375	826.8530273437501	334.7600097656249	-787.843017578125	1123.6669921875	294.0629882812499	-725.5640258789062	1352.905029296875	290.8840026855467	-780.72998046875	946.2310180664064	410.1510009765624	-567.8140258789062	1370.64794921875	294.346008300781	-754.9089965820312	688.0659790039064	430.9970092773437	-483.4639892578124	37.94699859619146	271.8940124511719	-566.7459716796875	446.9800109863282	352.4880065917968	-426.6839904785156	94.07599639892584	262.6709899902344	-370.3240051269531	69.31099700927743	360.4230041503907	-400.4760131835937	116.2929992675782	315.1879882812501	-789.6389770507812	856.8270263671876	274.3309936523437	-705.6510009765625	1213.296997070312	339.6409912109373	-609.0640258789062	517.2869873046876	406.6010131835937	-535.2420043945312	271.6889953613282	394.7659912109375	-349.4309997558593	95.56099700927741	337.5299987792969	-485.4809875488281	389.7070007324219	307.5859985351562	-734.7899780273438	731.1259765625001	397.4559936523437	-799.2919921875	728.2199707031251	424.5840148925781	-594.8629760742188	1042.751953125	215.8549957275389	-778.1069946289062	968.6489868164062	223.251998901367	
122	1.21	-721.5230102539062	1240.343994140625	215.7570037841795	-613.5130004882812	1163.318969726562	219.908004760742	-933.6680297851562	91.8320007324219	149.7579956054688	-643.5549926757812	823.8250122070312	113.5210037231444	-697.2310180664062	1377.343017578125	156.220993041992	-582.4769897460938	979.3930053710938	-23.7000007629396	-554.281005859375	1381.911987304688	159.3719940185544	-383.7730102539062	812.656982421875	-60.50799942016614	-978.5150146484375	71.93099975585942	199.0599975585938	-787.5180053710938	443.6530151367188	112.3509979248047	-903.385009765625	92.12000274658207	217.5140075683595	-873.125	29.88999938964846	114.0240020751954	-864.3679809570312	81.91500091552739	167.2940063476563	-782.3189697265625	857.718994140625	182.376007080078	-677.5579833984375	1205.91796875	77.81300354003888	-766.7249755859375	501.43701171875	64.53099822998045	-875.5070190429688	255.947006225586	83.14399719238287	-833.083984375	42.5929985046387	138.436004638672	-766.2000122070312	343.4989929199219	169.5390014648438	-413.9190063476562	855.822021484375	-14.1120004653932	-448.9410095214844	816.1519775390625	-53.37599945068372	-448.0920104980468	81.25499725341804	329.0750122070313	-637.3880004882812	826.6550292968751	335.4670104980468	-777.8519897460938	1122.651000976562	295.1180114746093	-715.3920288085938	1352.192016601562	292.9370117187498	-771.7570190429688	945.0789794921876	411.3640136718749	-557.6740112304688	1370.35400390625	296.325988769531	-747.2410278320312	686.7609863281251	432.5299987792968	-469.7070007324218	37.54399871826178	272.9970092773438	-555.3759765625	446.5020141601563	352.3980102539062	-413.3059997558593	94.00900268554693	263.3689880371094	-356.7040100097656	70.01999664306649	361.3030090332032	-387.1539916992187	116.6179962158204	315.7820129394532	-777.9829711914062	855.7609863281251	276.2999877929687	-696.1129760742188	1212.2490234375	341.4309997558591	-596.2880249023438	516.7379760742189	406.1329956054687	-523.0889892578125	271.5950012207032	395.2900085449219	-336.0220031738281	96.39299774169929	338.3859863281251	-474.2539978027343	389.6549987792969	307.1310119628906	-726.5120239257812	729.9080200195314	399.1940002441406	-791.2880249023438	727.1640014648439	425.7309875488281	-584.3049926757812	1042.35400390625	217.4649963378905	-767.3189697265625	967.8300170898438	224.8910064697264	
123	1.22	-711.1389770507812	1239.785034179688	217.6249999999998	-602.9320068359375	1162.881958007812	222.1519927978514	-932.0020141601562	94.71800231933597	149.5910034179688	-632.9929809570312	823.3400268554688	114.1090011596679	-687.2319946289062	1376.612060546875	158.3500061035154	-569.9019775390625	980.4520263671875	-22.62100028991714	-544.2059936523438	1381.615966796875	161.3899993896482	-368.2179870605469	817.7689819335938	-58.61700057983413	-977.083984375	75.98999786376957	199.0399932861329	-779.72802734375	443.9389953613281	112.9769973754883	-901.6270141601562	94.52500152587895	217.2330017089845	-872.7249755859375	30.65600013732913	114.1220016479493	-862.8319702148438	83.19699859619145	166.8780059814454	-771.197998046875	856.5399780273438	184.3930053710936	-666.10302734375	1205.8310546875	79.83300018310528	-758.5869750976562	501.635986328125	65.09300231933592	-870.7119750976562	257.9500122070312	83.27700042724615	-832.6119995117188	42.80199813842776	138.2350006103517	-759.6300048828125	343.2229919433594	169.6490020751953	-399.4429931640625	860.1649780273438	-12.33899974823012	-433.39599609375	819.656005859375	-51.41299819946303	-436.8880004882812	80.58799743652351	329.3909912109376	-624.72998046875	826.6350097656251	336.1690063476561	-767.7349853515625	1121.662963867188	296.3219909667968	-705.1619873046875	1351.529052734375	295.1619873046873	-762.5919799804688	943.8930053710939	412.7019958496093	-547.4630126953125	1370.170043945312	298.4129943847654	-739.3159790039062	685.4840087890626	434.2369995117187	-458.5109863281249	36.79000091552741	273.2250061035157	-543.5440063476562	446.2160034179688	352.6809997558593	-402.1249999999999	93.26899719238287	263.5989990234376	-345.7399902343749	69.43599700927743	361.7340087890626	-375.9440002441406	115.9229965209962	316.0379943847657	-766.072998046875	854.8319702148439	278.1249999999999	-686.468017578125	1211.177978515625	343.3869934082029	-582.5969848632812	517.1090087890626	405.9309997558593	-511.0599975585937	271.2290039062501	395.9649963378906	-324.9389953613281	95.6940002441407	338.8670043945313	-462.9530029296874	389.2049865722657	307.0639953613281	-718.093994140625	728.6209716796876	401.0140075683593	-783.0869750976562	726.0739746093751	426.9309997558593	-573.5609741210938	1042.046997070312	219.199996948242	-756.3660278320312	967.0289916992188	226.4299926757811	
